<svg xmlns="http://www.w3.org/2000/svg" xmlns:xlink="http://www.w3.org/1999/xlink" version="1.1" width="1000" height="1000" viewBox="0 0 1000 1000" xml:space="preserve">
<desc>Created with Fabric.js 3.5.0</desc>
<defs>
</defs>
<rect x="0" y="0" width="100%" height="100%" fill="#ffffff"/>
<g transform="matrix(3.0303 0 0 3.0298 -23797.8895 -20287.827)" id="Layer_1">
<linearGradient id="SVGID_13" gradientUnits="userSpaceOnUse" gradientTransform="matrix(0 -1 1 0 -53.7187 675.2695)" x1="623.8799" y1="53.7192" x2="726.6582" y2="53.7192">
<stop offset="0%" style="stop-color:rgb(247,148,30);stop-opacity: 1"/>
<stop offset="100%" style="stop-color:rgb(249,237,50);stop-opacity: 1"/>
</linearGradient>
<circle style="stroke: none; stroke-width: 0; stroke-dasharray: none; stroke-linecap: butt; stroke-dashoffset: 0; stroke-linejoin: miter; stroke-miterlimit: 4; is-custom-font: none; font-file-url: none; fill: url(#SVGID_13); fill-rule: nonzero; opacity: 1;" cx="0" cy="0" r="51.389"/>
</g>
<g transform="matrix(3.0303 0 0 3.0298 2954.5425 926.9343)" id="Layer_1">
<path style="stroke: none; stroke-width: 0; stroke-dasharray: none; stroke-linecap: butt; stroke-dashoffset: 0; stroke-linejoin: miter; stroke-miterlimit: 4; is-custom-font: none; font-file-url: none; fill: rgb(35,31,32); fill-rule: nonzero; opacity: 1;" transform=" translate(-960.4991, -291.441)" d="M 1021.139 308.167 c -6.835 -24.24 -32.004 -37.266 -55.636 -38.965 c -24.067 -1.729 -51.65 8.869 -62.672 31.582 c -1.265 2.607 -2.266 5.346 -2.993 8.149 c -0.331 1.275 -0.056 2.355 0.548 3.171 c 0.595 1.021 1.662 1.758 3.207 1.758 c 25.009 0 50.019 0 75.027 0 c 12.922 0 25.843 0 38.764 0 c 2.33 0 3.577 -1.676 3.745 -3.472 C 1021.342 309.744 1021.373 308.998 1021.139 308.167 z M 942.356 306.075 c -11.116 0 -22.233 0 -33.351 0 c 7.974 -19.372 30.725 -28.91 50.755 -29.243 c 20.475 -0.339 44.249 9.377 52.43 29.243 C 988.913 306.075 965.635 306.075 942.356 306.075 z" stroke-linecap="round"/>
</g>
<g transform="matrix(3.0303 0 0 3.0298 2954.4801 1207.712)" id="Layer_1">
<path style="stroke: none; stroke-width: 0; stroke-dasharray: none; stroke-linecap: butt; stroke-dashoffset: 0; stroke-linejoin: miter; stroke-miterlimit: 4; is-custom-font: none; font-file-url: none; fill: rgb(35,31,32); fill-rule: nonzero; opacity: 1;" transform=" translate(-960.4785, -384.1146)" d="M 1020.591 363.45 c -0.595 -1.02 -1.662 -1.757 -3.206 -1.757 c -25.009 0 -50.019 0 -75.028 0 c -12.921 0 -25.842 0 -38.764 0 c -2.329 0 -3.576 1.676 -3.745 3.473 c -0.212 0.646 -0.244 1.392 -0.01 2.223 c 6.836 24.241 32.005 37.266 55.637 38.965 c 24.066 1.73 51.65 -8.869 62.672 -31.581 c 1.265 -2.607 2.266 -5.347 2.993 -8.15 C 1021.471 365.347 1021.195 364.267 1020.591 363.45 z M 961.216 398.724 c -20.474 0.34 -44.248 -9.376 -52.43 -29.242 c 23.278 0 46.557 0 69.834 0 c 11.117 0 22.234 0 33.352 0 C 1003.998 388.854 981.248 398.391 961.216 398.724 z" stroke-linecap="round"/>
</g>
<g transform="matrix(3.0303 0 0 3.0298 2953.221 1034.2894)" id="Layer_1">
<path style="stroke: none; stroke-width: 0; stroke-dasharray: none; stroke-linecap: butt; stroke-dashoffset: 0; stroke-linejoin: miter; stroke-miterlimit: 4; is-custom-font: none; font-file-url: none; fill: rgb(35,31,32); fill-rule: nonzero; opacity: 1;" transform=" translate(-960.063, -326.875)" d="M 894.92 330.769 c 23.518 0 47.034 0 70.552 0 c 19.912 0 39.823 0 59.734 0 c 4.991 0 4.991 -7.788 0 -7.788 c -23.518 0 -47.034 0 -70.552 0 c -19.911 0 -39.823 0 -59.734 0 C 889.929 322.98 889.929 330.769 894.92 330.769 L 894.92 330.769 z" stroke-linecap="round"/>
</g>
<g transform="matrix(3.0303 0 0 3.0298 2953.0213 1096.9214)" id="Layer_1">
<path style="stroke: none; stroke-width: 0; stroke-dasharray: none; stroke-linecap: butt; stroke-dashoffset: 0; stroke-linejoin: miter; stroke-miterlimit: 4; is-custom-font: none; font-file-url: none; fill: rgb(35,31,32); fill-rule: evenodd; opacity: 1;" transform=" translate(-959.9971, -347.5472)" d="M 908.156 338.399 c 3.153 -0.008 6.104 0.858 8.836 2.34 c 3.74 2.03 7.394 4.222 11.082 6.35 c 1.897 1.094 3.926 1.722 6.126 1.684 c 2.1 -0.035 4.039 -0.669 5.837 -1.735 c 2.857 -1.694 5.716 -3.388 8.561 -5.104 c 7.773 -4.69 15.486 -4.528 23.175 0.221 c 2.697 1.666 5.433 3.271 8.168 4.874 c 4.07 2.384 8.146 2.319 12.2 -0.06 c 2.97 -1.742 5.956 -3.458 8.902 -5.237 c 7.153 -4.32 14.336 -4.327 21.55 -0.196 c 1.521 0.869 3.018 1.787 4.465 2.769 c 1.932 1.31 2.408 3.433 1.286 5.303 c -1.124 1.874 -3.325 2.46 -5.366 1.366 c -1.568 -0.842 -3.109 -1.741 -4.639 -2.653 c -4.193 -2.499 -8.39 -2.583 -12.604 -0.071 c -3.01 1.793 -5.99 3.636 -9.031 5.376 c -7.169 4.101 -14.366 4.069 -21.521 -0.045 c -3.089 -1.777 -6.113 -3.668 -9.194 -5.457 c -3.97 -2.305 -7.979 -2.323 -11.961 -0.017 c -3.109 1.802 -6.199 3.64 -9.297 5.462 c -3.819 2.247 -7.894 3.463 -12.366 3.045 c -3.913 -0.366 -7.383 -1.914 -10.688 -3.949 c -2.597 -1.599 -5.23 -3.139 -7.878 -4.651 c -3.874 -2.214 -7.771 -2.134 -11.64 0.034 c -1.66 0.93 -3.277 1.938 -4.953 2.838 c -2.783 1.495 -5.675 0.128 -6.112 -2.89 c -0.222 -1.526 0.476 -2.771 1.689 -3.583 C 897.457 341.284 902.255 338.426 908.156 338.399 z" stroke-linecap="round"/>
</g>
<g transform="matrix(3.0303 0 0 3.0298 2575.1379 1664.9813)" id="Layer_1">
<path style="stroke: none; stroke-width: 0; stroke-dasharray: none; stroke-linecap: butt; stroke-dashoffset: 0; stroke-linejoin: miter; stroke-miterlimit: 4; is-custom-font: none; font-file-url: none; fill: rgb(35,31,32); fill-rule: nonzero; opacity: 1;" transform=" translate(-835.2955, -535.041)" d="M 844.105 513.379 c 1.612 0.723 3.032 1.697 4.26 2.924 c 1.229 1.229 2.19 2.648 2.889 4.26 c 0.696 1.613 1.047 3.359 1.047 5.236 c 0 1.83 -0.325 3.527 -0.975 5.09 c -0.65 1.566 -1.528 2.951 -2.636 4.152 c 1.107 1.205 1.985 2.588 2.636 4.152 c 0.649 1.566 0.975 3.262 0.975 5.092 c 0 1.877 -0.351 3.623 -1.047 5.234 c -0.698 1.613 -1.66 3.033 -2.889 4.26 c -1.228 1.229 -2.647 2.203 -4.26 2.926 c -1.614 0.721 -3.358 1.082 -5.236 1.082 H 818.29 v -8.736 h 20.797 c 1.155 -0.191 2.13 -0.734 2.925 -1.625 c 0.794 -0.891 1.19 -1.938 1.19 -3.141 c 0 -1.252 -0.409 -2.334 -1.228 -3.25 c -0.818 -0.914 -1.854 -1.42 -3.105 -1.516 H 818.29 v -8.883 h 20.219 c 1.3 -0.047 2.406 -0.529 3.322 -1.443 c 0.913 -0.914 1.371 -2.023 1.371 -3.322 c 0 -1.203 -0.386 -2.238 -1.155 -3.105 c -0.771 -0.867 -1.71 -1.42 -2.816 -1.66 h -20.94 v -8.811 h 20.579 C 840.747 512.295 842.491 512.656 844.105 513.379 z" stroke-linecap="round"/>
</g>
<g transform="matrix(3.0303 0 0 3.0298 2692.3136 1664.9798)" id="Layer_1">
<path style="stroke: none; stroke-width: 0; stroke-dasharray: none; stroke-linecap: butt; stroke-dashoffset: 0; stroke-linejoin: miter; stroke-miterlimit: 4; is-custom-font: none; font-file-url: none; fill: rgb(35,31,32); fill-rule: nonzero; opacity: 1;" transform=" translate(-873.9635, -535.0405)" d="M 882.773 512.295 h 9.242 v 27.439 c 0 2.506 -0.469 4.852 -1.408 7.041 c -0.938 2.191 -2.227 4.105 -3.862 5.74 c -1.638 1.639 -3.551 2.926 -5.741 3.863 c -2.191 0.939 -4.538 1.408 -7.04 1.408 c -2.504 0 -4.851 -0.469 -7.041 -1.408 c -2.191 -0.938 -4.104 -2.225 -5.74 -3.863 c -1.637 -1.635 -2.924 -3.549 -3.863 -5.74 c -0.938 -2.189 -1.408 -4.535 -1.408 -7.041 v -27.439 h 9.242 v 27.439 c 0 1.205 0.229 2.348 0.687 3.432 c 0.457 1.082 1.083 2.021 1.878 2.816 c 0.794 0.793 1.732 1.42 2.815 1.877 s 2.226 0.686 3.431 0.686 c 1.202 0 2.347 -0.229 3.43 -0.686 s 2.021 -1.084 2.816 -1.877 c 0.794 -0.795 1.419 -1.734 1.877 -2.816 c 0.457 -1.084 0.687 -2.227 0.687 -3.432 V 512.295 z" stroke-linecap="round"/>
</g>
<g transform="matrix(3.0303 0 0 3.0298 2815.8348 1664.9813)" id="Layer_1">
<path style="stroke: none; stroke-width: 0; stroke-dasharray: none; stroke-linecap: butt; stroke-dashoffset: 0; stroke-linejoin: miter; stroke-miterlimit: 4; is-custom-font: none; font-file-url: none; fill: rgb(35,31,32); fill-rule: nonzero; opacity: 1;" transform=" translate(-914.7255, -535.041)" d="M 933.824 525.799 c 0 1.83 -0.324 3.527 -0.975 5.09 c -0.65 1.566 -1.528 2.951 -2.636 4.152 c 1.107 1.205 1.985 2.588 2.636 4.152 c 0.65 1.566 0.975 3.238 0.975 5.02 v 13.574 h -9.098 v -13.574 c 0 -1.301 -0.459 -2.406 -1.373 -3.322 c -0.914 -0.914 -2.021 -1.396 -3.321 -1.443 h -11.336 v -8.883 h 11.77 c 1.202 -0.096 2.214 -0.602 3.032 -1.516 c 0.819 -0.914 1.229 -1.998 1.229 -3.25 c 0 -1.203 -0.397 -2.25 -1.191 -3.141 s -1.77 -1.432 -2.925 -1.625 h -15.742 v 36.754 h -9.242 v -45.492 h 24.84 c 1.829 0 3.562 0.361 5.199 1.084 c 1.636 0.723 3.057 1.697 4.26 2.924 c 1.203 1.229 2.154 2.648 2.854 4.26 C 933.475 522.176 933.824 523.922 933.824 525.799 z" stroke-linecap="round"/>
</g>
<g transform="matrix(3.0303 0 0 3.0298 2951.6075 1677.2308)" id="Layer_1">
<path style="stroke: none; stroke-width: 0; stroke-dasharray: none; stroke-linecap: butt; stroke-dashoffset: 0; stroke-linejoin: miter; stroke-miterlimit: 4; is-custom-font: none; font-file-url: none; fill: rgb(35,31,32); fill-rule: nonzero; opacity: 1;" transform=" translate(-959.5305, -539.084)" d="M 972.385 538.436 h 9.242 v 27.439 h -9.242 v -11.627 c -1.782 1.109 -3.696 1.975 -5.741 2.6 c -2.047 0.627 -4.2 0.939 -6.462 0.939 c -3.13 0 -6.079 -0.59 -8.846 -1.768 c -2.77 -1.18 -5.188 -2.805 -7.258 -4.875 c -2.071 -2.068 -3.695 -4.488 -4.874 -7.258 c -1.181 -2.768 -1.77 -5.715 -1.77 -8.846 c 0 -3.127 0.589 -6.076 1.77 -8.846 c 1.179 -2.768 2.803 -5.174 4.874 -7.221 c 2.069 -2.045 4.488 -3.67 7.258 -4.873 c 2.767 -1.203 5.716 -1.807 8.846 -1.807 c 2.406 0 4.717 0.361 6.932 1.084 c 2.214 0.723 4.248 1.732 6.102 3.031 c 1.853 1.301 3.478 2.842 4.874 4.623 c 1.396 1.781 2.502 3.754 3.322 5.92 l -8.521 3.107 c -0.963 -2.553 -2.588 -4.623 -4.874 -6.211 c -2.287 -1.59 -4.874 -2.383 -7.763 -2.383 c -1.878 0 -3.635 0.361 -5.271 1.082 c -1.636 0.723 -3.068 1.697 -4.296 2.926 c -1.228 1.227 -2.191 2.66 -2.889 4.297 c -0.698 1.637 -1.047 3.393 -1.047 5.27 s 0.349 3.635 1.047 5.271 c 0.697 1.639 1.661 3.068 2.889 4.297 s 2.66 2.203 4.296 2.924 c 1.637 0.723 3.394 1.084 5.271 1.084 c 2.695 0 5.115 -0.697 7.258 -2.094 c 2.142 -1.396 3.767 -3.201 4.874 -5.416 V 538.436 z" stroke-linecap="round"/>
</g>
<g transform="matrix(3.0303 0 0 3.0298 3081.1454 1664.9828)" id="Layer_1">
<path style="stroke: none; stroke-width: 0; stroke-dasharray: none; stroke-linecap: butt; stroke-dashoffset: 0; stroke-linejoin: miter; stroke-miterlimit: 4; is-custom-font: none; font-file-url: none; fill: rgb(35,31,32); fill-rule: nonzero; opacity: 1;" transform=" translate(-1002.278, -535.0415)" d="M 1019.32 512.295 v 8.738 h -20.797 c -1.204 0.193 -2.202 0.734 -2.996 1.625 c -0.795 0.891 -1.192 1.938 -1.192 3.141 c 0 1.252 0.408 2.336 1.229 3.25 c 0.817 0.914 1.853 1.42 3.104 1.516 h 20.652 v 8.883 h -20.292 c -1.299 0.047 -2.407 0.529 -3.321 1.443 c -0.915 0.916 -1.372 2.021 -1.372 3.322 c 0 1.203 0.385 2.238 1.155 3.104 c 0.771 0.867 1.709 1.422 2.816 1.662 h 21.014 v 8.809 h -20.652 c -1.878 0 -3.623 -0.361 -5.235 -1.082 c -1.613 -0.723 -3.033 -1.697 -4.261 -2.926 c -1.227 -1.227 -2.19 -2.646 -2.889 -4.26 c -0.698 -1.611 -1.047 -3.357 -1.047 -5.234 c 0 -1.83 0.325 -3.525 0.976 -5.092 c 0.649 -1.564 1.527 -2.947 2.635 -4.152 c -1.107 -1.201 -1.985 -2.586 -2.635 -4.152 c -0.65 -1.562 -0.976 -3.26 -0.976 -5.09 c 0 -1.877 0.349 -3.623 1.047 -5.236 c 0.698 -1.611 1.662 -3.031 2.889 -4.26 c 1.228 -1.227 2.647 -2.201 4.261 -2.924 c 1.612 -0.723 3.357 -1.084 5.235 -1.084 H 1019.32 z" stroke-linecap="round"/>
</g>
<g transform="matrix(3.0303 0 0 3.0298 3201.606 1664.9813)" id="Layer_1">
<path style="stroke: none; stroke-width: 0; stroke-dasharray: none; stroke-linecap: butt; stroke-dashoffset: 0; stroke-linejoin: miter; stroke-miterlimit: 4; is-custom-font: none; font-file-url: none; fill: rgb(35,31,32); fill-rule: nonzero; opacity: 1;" transform=" translate(-1042.03, -535.041)" d="M 1061.129 525.799 c 0 1.83 -0.325 3.527 -0.976 5.09 c -0.649 1.566 -1.528 2.951 -2.635 4.152 c 1.106 1.205 1.985 2.588 2.635 4.152 c 0.65 1.566 0.976 3.238 0.976 5.02 v 13.574 h -9.099 v -13.574 c 0 -1.301 -0.458 -2.406 -1.372 -3.322 c -0.915 -0.914 -2.021 -1.396 -3.321 -1.443 H 1036 v -8.883 h 11.771 c 1.201 -0.096 2.214 -0.602 3.032 -1.516 s 1.228 -1.998 1.228 -3.25 c 0 -1.203 -0.397 -2.25 -1.191 -3.141 s -1.769 -1.432 -2.925 -1.625 h -15.741 v 36.754 h -9.243 v -45.492 h 24.841 c 1.828 0 3.562 0.361 5.199 1.084 c 1.636 0.723 3.056 1.697 4.26 2.924 c 1.203 1.229 2.154 2.648 2.853 4.26 C 1060.778 522.176 1061.129 523.922 1061.129 525.799 z" stroke-linecap="round"/>
</g>
<g transform="matrix(3.0303 0 0 3.0298 3326.2196 1665.0918)" id="Layer_1">
<path style="stroke: none; stroke-width: 0; stroke-dasharray: none; stroke-linecap: butt; stroke-dashoffset: 0; stroke-linejoin: miter; stroke-miterlimit: 4; is-custom-font: none; font-file-url: none; fill: rgb(35,31,32); fill-rule: nonzero; opacity: 1;" transform=" translate(-1083.1525, -535.0775)" d="M 1098.028 535.041 c 1.106 1.205 1.985 2.588 2.635 4.152 c 0.65 1.566 0.999 3.238 1.048 5.02 c -0.049 1.781 -0.397 3.453 -1.048 5.018 c -0.649 1.566 -1.528 2.949 -2.635 4.152 c 0.047 0 0.072 0.025 0.072 0.072 c -1.253 1.299 -2.709 2.346 -4.369 3.143 c -1.661 0.793 -3.479 1.189 -5.451 1.189 h -20.652 v -8.736 h 20.795 c 1.203 -0.191 2.203 -0.734 2.998 -1.625 c 0.794 -0.891 1.19 -1.938 1.19 -3.141 v -0.072 c 0 -1.203 -0.386 -2.227 -1.154 -3.07 c -0.771 -0.84 -1.733 -1.383 -2.889 -1.623 h -10.543 c -1.975 0 -3.791 -0.398 -5.452 -1.191 c -1.66 -0.795 -3.117 -1.842 -4.368 -3.143 v -0.072 c -1.108 -1.203 -1.986 -2.586 -2.636 -4.152 c -0.649 -1.562 -0.975 -3.236 -0.975 -5.018 c 0 -1.779 0.325 -3.453 0.975 -5.02 c 0.649 -1.562 1.527 -2.947 2.636 -4.152 v -0.072 c 1.251 -1.299 2.708 -2.346 4.368 -3.139 c 1.661 -0.795 3.478 -1.193 5.452 -1.193 h 20.652 v 8.738 h -20.797 c -1.203 0.193 -2.202 0.734 -2.996 1.625 c -0.795 0.891 -1.192 1.938 -1.192 3.141 v 0.072 c 0 1.203 0.386 2.238 1.155 3.105 c 0.771 0.867 1.709 1.42 2.817 1.66 h 10.615 c 1.973 0 3.79 0.387 5.451 1.156 c 1.66 0.77 3.116 1.805 4.369 3.104 C 1098.101 535.018 1098.075 535.041 1098.028 535.041 z" stroke-linecap="round"/>
</g>
<g transform="matrix(3.0303 0 0 3.0298 2707.6287 1443.8247)" id="Layer_1">
<path style="stroke: none; stroke-width: 0; stroke-dasharray: none; stroke-linecap: butt; stroke-dashoffset: 0; stroke-linejoin: miter; stroke-miterlimit: 4; is-custom-font: none; font-file-url: none; fill: rgb(35,31,32); fill-rule: nonzero; opacity: 1;" transform=" translate(-879.0175, -462.046)" d="M 889.38 440.455 c 1.732 0.771 3.237 1.805 4.514 3.105 c 1.274 1.299 2.285 2.816 3.032 4.549 c 0.746 1.732 1.119 3.586 1.119 5.561 c 0 1.732 -0.289 3.383 -0.866 4.945 c -0.578 1.566 -1.372 2.961 -2.383 4.189 s -2.215 2.264 -3.61 3.105 c -1.396 0.842 -2.914 1.432 -4.55 1.768 l 0.072 0.361 h -13.215 v -9.242 h 10.255 c 1.396 -0.047 2.6 -0.564 3.61 -1.553 c 1.011 -0.986 1.517 -2.178 1.517 -3.574 c 0 -1.301 -0.41 -2.42 -1.228 -3.357 c -0.819 -0.939 -1.854 -1.529 -3.105 -1.77 h -15.309 v 36.25 h -9.243 v -45.492 h 23.829 C 885.794 439.301 887.647 439.686 889.38 440.455 z" stroke-linecap="round"/>
</g>
<g transform="matrix(3.0303 0 0 3.0298 2830.9303 1443.8262)" id="Layer_1">
<path style="stroke: none; stroke-width: 0; stroke-dasharray: none; stroke-linecap: butt; stroke-dashoffset: 0; stroke-linejoin: miter; stroke-miterlimit: 4; is-custom-font: none; font-file-url: none; fill: rgb(35,31,32); fill-rule: nonzero; opacity: 1;" transform=" translate(-919.707, -462.0465)" d="M 919.708 439.301 c 2.502 0 4.85 0.467 7.04 1.406 s 4.104 2.229 5.741 3.863 c 1.636 1.637 2.924 3.551 3.862 5.742 s 1.408 4.537 1.408 7.039 v 27.441 h -9.242 v -9.1 h -17.62 v 9.1 h -9.242 v -27.441 c 0 -2.502 0.47 -4.848 1.408 -7.039 c 0.939 -2.191 2.227 -4.105 3.863 -5.742 c 1.636 -1.635 3.549 -2.924 5.74 -3.863 C 914.857 439.768 917.204 439.301 919.708 439.301 z M 928.518 457.352 c 0 -1.201 -0.229 -2.346 -0.686 -3.43 c -0.459 -1.082 -1.084 -2.021 -1.878 -2.816 c -0.794 -0.793 -1.733 -1.418 -2.816 -1.877 c -1.083 -0.457 -2.228 -0.686 -3.43 -0.686 c -1.204 0 -2.347 0.229 -3.431 0.686 c -1.082 0.459 -2.021 1.084 -2.815 1.877 c -0.795 0.795 -1.422 1.734 -1.878 2.816 c -0.458 1.084 -0.687 2.229 -0.687 3.43 v 9.1 h 17.62 V 457.352 z" stroke-linecap="round"/>
</g>
<g transform="matrix(3.0303 0 0 3.0298 2952.3757 1443.9353)" id="Layer_1">
<path style="stroke: none; stroke-width: 0; stroke-dasharray: none; stroke-linecap: butt; stroke-dashoffset: 0; stroke-linejoin: miter; stroke-miterlimit: 4; is-custom-font: none; font-file-url: none; fill: rgb(35,31,32); fill-rule: nonzero; opacity: 1;" transform=" translate(-959.784, -462.0825)" d="M 974.66 462.045 c 1.106 1.205 1.985 2.59 2.635 4.152 c 0.65 1.566 0.998 3.238 1.048 5.02 c -0.05 1.781 -0.397 3.455 -1.048 5.02 c -0.649 1.564 -1.528 2.949 -2.635 4.152 c 0.046 0 0.071 0.023 0.071 0.07 c -1.252 1.301 -2.708 2.348 -4.369 3.143 c -1.66 0.795 -3.478 1.191 -5.451 1.191 h -20.652 v -8.738 h 20.796 c 1.203 -0.191 2.203 -0.734 2.998 -1.625 c 0.794 -0.891 1.19 -1.936 1.19 -3.141 v -0.072 c 0 -1.203 -0.386 -2.227 -1.155 -3.068 s -1.732 -1.385 -2.888 -1.625 h -10.543 c -1.975 0 -3.791 -0.396 -5.452 -1.191 s -3.117 -1.842 -4.368 -3.143 v -0.07 c -1.108 -1.203 -1.986 -2.588 -2.636 -4.152 s -0.976 -3.238 -0.976 -5.02 c 0 -1.779 0.326 -3.453 0.976 -5.018 s 1.527 -2.949 2.636 -4.152 v -0.072 c 1.251 -1.301 2.707 -2.348 4.368 -3.141 c 1.661 -0.797 3.478 -1.193 5.452 -1.193 h 20.652 v 8.738 h -20.797 c -1.204 0.193 -2.202 0.734 -2.997 1.625 c -0.794 0.891 -1.191 1.938 -1.191 3.141 v 0.072 c 0 1.203 0.385 2.238 1.155 3.105 s 1.709 1.42 2.817 1.662 h 10.614 c 1.974 0 3.791 0.385 5.451 1.154 c 1.661 0.77 3.117 1.805 4.369 3.105 C 974.731 462.023 974.706 462.045 974.66 462.045 z" stroke-linecap="round"/>
</g>
<g transform="matrix(3.0303 0 0 3.0298 3077.6469 1443.8277)" id="Layer_1">
<path style="stroke: none; stroke-width: 0; stroke-dasharray: none; stroke-linecap: butt; stroke-dashoffset: 0; stroke-linejoin: miter; stroke-miterlimit: 4; is-custom-font: none; font-file-url: none; fill: rgb(35,31,32); fill-rule: nonzero; opacity: 1;" transform=" translate(-1001.1235, -462.047)" d="M 1020.296 448.543 h -14.515 v 36.25 h -9.243 v -36.25 h -14.587 v -9.242 h 38.345 V 448.543 z" stroke-linecap="round"/>
</g>
<g transform="matrix(3.0303 0 0 3.0298 3201.3863 1443.8262)" id="Layer_1">
<path style="stroke: none; stroke-width: 0; stroke-dasharray: none; stroke-linecap: butt; stroke-dashoffset: 0; stroke-linejoin: miter; stroke-miterlimit: 4; is-custom-font: none; font-file-url: none; fill: rgb(35,31,32); fill-rule: nonzero; opacity: 1;" transform=" translate(-1041.9575, -462.0465)" d="M 1041.959 439.301 c 2.501 0 4.849 0.467 7.04 1.406 c 2.19 0.939 4.104 2.229 5.74 3.863 c 1.636 1.637 2.925 3.551 3.863 5.742 s 1.408 4.537 1.408 7.039 v 27.441 h -9.243 v -9.1 h -17.618 v 9.1 h -9.244 v -27.441 c 0 -2.502 0.47 -4.848 1.408 -7.039 c 0.939 -2.191 2.227 -4.105 3.863 -5.742 c 1.636 -1.635 3.551 -2.924 5.74 -3.863 C 1037.107 439.768 1039.454 439.301 1041.959 439.301 z M 1050.768 457.352 c 0 -1.201 -0.229 -2.346 -0.686 -3.43 c -0.458 -1.082 -1.083 -2.021 -1.878 -2.816 c -0.794 -0.793 -1.733 -1.418 -2.816 -1.877 c -1.082 -0.457 -2.228 -0.686 -3.429 -0.686 c -1.205 0 -2.348 0.229 -3.431 0.686 c -1.083 0.459 -2.021 1.084 -2.815 1.877 c -0.796 0.795 -1.422 1.734 -1.878 2.816 c -0.459 1.084 -0.686 2.229 -0.686 3.43 v 9.1 h 17.618 V 457.352 z" stroke-linecap="round"/>
</g>
<g transform="matrix(2.2523 0 0 2.2523 495.4315 504.5555)" id="561741">
<g style="">
		<g transform="matrix(3.0303 0 0 3.0298 -1.5883 3.4551)" id="Layer_1">
<linearGradient id="SVGID_14" gradientUnits="userSpaceOnUse" gradientTransform="matrix(0 -1 1 0 756.2813 942.2695)" x1="890.8799" y1="-756.2808" x2="993.6582" y2="-756.2808">
<stop offset="0%" style="stop-color:rgb(247,148,30);stop-opacity: 1"/>
<stop offset="100%" style="stop-color:rgb(249,237,50);stop-opacity: 1"/>
</linearGradient>
<circle style="stroke: none; stroke-width: 0; stroke-dasharray: none; stroke-linecap: butt; stroke-dashoffset: 0; stroke-linejoin: miter; stroke-miterlimit: 4; is-custom-font: none; font-file-url: none; fill: url(#SVGID_14); fill-rule: nonzero; opacity: 1;" cx="0" cy="0" r="51.389"/>
</g>
		<g transform="matrix(3.0303 0 0 3.0298 1.5088 -140.3897)" id="Layer_1">
<path style="stroke: none; stroke-width: 0; stroke-dasharray: none; stroke-linecap: butt; stroke-dashoffset: 0; stroke-linejoin: miter; stroke-miterlimit: 4; is-custom-font: none; font-file-url: none; fill: rgb(35,31,32); fill-rule: nonzero; opacity: 1;" transform=" translate(-150.4991, -24.441)" d="M 211.139 41.167 c -6.835 -24.24 -32.004 -37.266 -55.636 -38.965 c -24.067 -1.729 -51.65 8.869 -62.672 31.582 c -1.265 2.607 -2.266 5.346 -2.993 8.149 c -0.331 1.275 -0.056 2.355 0.548 3.171 c 0.595 1.021 1.662 1.758 3.207 1.758 c 25.009 0 50.019 0 75.027 0 c 12.922 0 25.843 0 38.764 0 c 2.33 0 3.577 -1.676 3.745 -3.472 C 211.342 42.744 211.373 41.998 211.139 41.167 z M 132.356 39.075 c -11.116 0 -22.233 0 -33.351 0 c 7.974 -19.372 30.725 -28.91 50.755 -29.243 c 20.475 -0.339 44.249 9.377 52.43 29.243 C 178.913 39.075 155.635 39.075 132.356 39.075 z" stroke-linecap="round"/>
</g>
		<g transform="matrix(3.0303 0 0 3.0298 0.1873 -33.0346)" id="Layer_1">
<path style="stroke: none; stroke-width: 0; stroke-dasharray: none; stroke-linecap: butt; stroke-dashoffset: 0; stroke-linejoin: miter; stroke-miterlimit: 4; is-custom-font: none; font-file-url: none; fill: rgb(35,31,32); fill-rule: nonzero; opacity: 1;" transform=" translate(-150.063, -59.875)" d="M 84.92 63.769 c 23.518 0 47.034 0 70.552 0 c 19.912 0 39.823 0 59.734 0 c 4.991 0 4.991 -7.788 0 -7.788 c -23.518 0 -47.034 0 -70.552 0 c -19.911 0 -39.823 0 -59.734 0 C 79.929 55.98 79.929 63.769 84.92 63.769 L 84.92 63.769 z" stroke-linecap="round"/>
</g>
		<g transform="matrix(3.0303 0 0 3.0298 -0.0123 29.5974)" id="Layer_1">
<path style="stroke: none; stroke-width: 0; stroke-dasharray: none; stroke-linecap: butt; stroke-dashoffset: 0; stroke-linejoin: miter; stroke-miterlimit: 4; is-custom-font: none; font-file-url: none; fill: rgb(35,31,32); fill-rule: evenodd; opacity: 1;" transform=" translate(-149.9971, -80.5472)" d="M 98.156 71.399 c 3.153 -0.008 6.104 0.858 8.836 2.34 c 3.74 2.03 7.394 4.222 11.082 6.35 c 1.897 1.094 3.926 1.722 6.126 1.684 c 2.1 -0.035 4.039 -0.669 5.837 -1.735 c 2.857 -1.694 5.716 -3.388 8.561 -5.104 c 7.773 -4.69 15.486 -4.528 23.175 0.221 c 2.697 1.666 5.433 3.271 8.168 4.874 c 4.07 2.384 8.146 2.319 12.2 -0.06 c 2.97 -1.742 5.956 -3.458 8.902 -5.237 c 7.153 -4.32 14.336 -4.327 21.55 -0.196 c 1.521 0.869 3.018 1.787 4.465 2.769 c 1.932 1.31 2.408 3.433 1.286 5.303 c -1.124 1.874 -3.325 2.46 -5.366 1.366 c -1.568 -0.842 -3.109 -1.741 -4.639 -2.653 c -4.193 -2.499 -8.39 -2.583 -12.604 -0.071 c -3.01 1.793 -5.99 3.636 -9.031 5.376 c -7.169 4.101 -14.366 4.069 -21.521 -0.045 c -3.089 -1.777 -6.113 -3.668 -9.194 -5.457 c -3.97 -2.305 -7.979 -2.323 -11.961 -0.017 c -3.109 1.802 -6.199 3.64 -9.297 5.462 c -3.819 2.247 -7.894 3.463 -12.366 3.045 c -3.913 -0.366 -7.383 -1.914 -10.688 -3.949 c -2.597 -1.599 -5.23 -3.139 -7.878 -4.651 c -3.874 -2.214 -7.771 -2.134 -11.64 0.034 c -1.66 0.93 -3.277 1.938 -4.953 2.838 c -2.783 1.495 -5.675 0.128 -6.112 -2.89 c -0.222 -1.526 0.476 -2.771 1.689 -3.583 C 87.457 74.284 92.255 71.426 98.156 71.399 z" stroke-linecap="round"/>
</g>
		<g transform="matrix(3.0303 0 0 3.0298 1.4465 140.388)" id="Layer_1">
<path style="stroke: none; stroke-width: 0; stroke-dasharray: none; stroke-linecap: butt; stroke-dashoffset: 0; stroke-linejoin: miter; stroke-miterlimit: 4; is-custom-font: none; font-file-url: none; fill: rgb(35,31,32); fill-rule: nonzero; opacity: 1;" transform=" translate(-150.4785, -117.1146)" d="M 210.591 96.45 c -0.595 -1.02 -1.662 -1.757 -3.206 -1.757 c -25.009 0 -50.019 0 -75.028 0 c -12.921 0 -25.842 0 -38.764 0 c -2.329 0 -3.576 1.676 -3.745 3.473 c -0.212 0.646 -0.244 1.392 -0.01 2.223 c 6.836 24.241 32.005 37.266 55.637 38.965 c 24.066 1.73 51.65 -8.869 62.672 -31.581 c 1.265 -2.607 2.266 -5.347 2.993 -8.15 C 211.471 98.347 211.195 97.267 210.591 96.45 z M 151.216 131.724 c -20.474 0.34 -44.248 -9.376 -52.43 -29.242 c 23.278 0 46.557 0 69.834 0 c 11.117 0 22.234 0 33.352 0 C 193.998 121.854 171.248 131.391 151.216 131.724 z" stroke-linecap="round"/>
</g>
</g>
</g>
</svg>