<?xml version="1.0" standalone="no"?>
<!DOCTYPE svg PUBLIC "-//W3C//DTD SVG 20010904//EN"
 "http://www.w3.org/TR/2001/REC-SVG-20010904/DTD/svg10.dtd">
<svg version="1.0" xmlns="http://www.w3.org/2000/svg"
 width="576.000000pt" height="574.000000pt" viewBox="0 0 576.000000 574.000000"
 preserveAspectRatio="xMidYMid meet">

<g transform="translate(0.000000,574.000000) scale(0.100000,-0.100000)"
fill="#000000" stroke="none">
<path d="M2700 5730 c-773 -50 -1500 -386 -1922 -890 -205 -245 -386 -598
-405 -792 -5 -49 -2 -63 20 -101 16 -28 41 -52 64 -63 37 -18 109 -19 2448
-19 l2410 0 39 24 c84 53 97 157 40 323 -198 575 -688 1046 -1364 1311 -400
157 -898 235 -1330 207z m614 -350 c716 -108 1321 -467 1626 -965 39 -63 110
-205 110 -219 0 -3 -965 -6 -2145 -6 -1180 0 -2145 2 -2145 5 0 13 63 142 96
198 104 173 308 396 476 520 338 249 796 424 1248 476 52 6 111 13 130 15 95
11 471 -4 604 -24z"/>
<path d="M105 3476 c-131 -57 -119 -267 16 -306 22 -6 1012 -10 2769 -10
l2736 0 44 23 c54 27 80 73 80 142 0 69 -26 115 -80 143 l-44 22 -2746 0
c-2260 -1 -2750 -3 -2775 -14z"/>
<path d="M635 2840 c-144 -16 -305 -82 -502 -209 -96 -61 -123 -98 -123 -166
0 -100 76 -171 173 -163 41 3 75 18 161 67 200 116 264 141 363 141 117 0 198
-34 458 -192 196 -118 259 -151 345 -183 204 -73 388 -72 586 4 43 17 187 94
319 172 132 78 269 153 304 166 117 43 236 41 346 -8 26 -11 133 -72 238 -136
106 -63 223 -131 262 -151 257 -129 515 -134 767 -13 46 21 171 92 278 157
244 147 308 175 415 181 107 7 192 -22 368 -124 112 -66 140 -78 187 -81 64
-4 108 19 148 78 20 29 23 45 20 90 -2 35 -11 66 -23 82 -48 65 -343 229 -471
263 -40 10 -120 20 -189 22 -208 8 -294 -22 -635 -223 -129 -76 -262 -149
-294 -162 -120 -49 -248 -46 -363 8 -35 16 -161 87 -280 158 -330 195 -434
230 -652 219 -194 -10 -276 -42 -598 -233 -283 -168 -306 -178 -428 -182 -135
-5 -160 5 -480 189 -146 83 -291 162 -323 175 -129 52 -242 68 -377 54z"/>
<path d="M700 1871 c-261 -7 -273 -10 -306 -73 -32 -61 -30 -142 5 -248 171
-514 578 -953 1136 -1225 310 -151 575 -233 945 -290 143 -23 559 -31 716 -15
641 65 1205 300 1630 679 203 182 380 419 490 657 56 120 114 303 114 359 0
60 -32 115 -83 142 -30 16 -165 18 -2222 19 -1204 0 -2296 -2 -2425 -5z m4335
-343 c-13 -42 -97 -192 -159 -283 -73 -107 -250 -293 -361 -380 -347 -270
-773 -441 -1280 -511 -174 -25 -519 -25 -695 0 -469 64 -892 230 -1225 480
-119 89 -277 247 -365 365 -64 84 -200 320 -200 345 0 3 966 6 2146 6 l2145 0
-6 -22z"/>
</g>
</svg>
